<?xml version="1.0" encoding="UTF-8"?>
<svg width="100" height="100" viewBox="0 0 100 100" xmlns="http://www.w3.org/2000/svg">
  <path d="M10,10 L20,10 L20,20 L10,20 Z" fill="currentColor" opacity="0.1"/>
  <path d="M40,10 L50,10 L50,20 L40,20 Z" fill="currentColor" opacity="0.1"/>
  <path d="M70,10 L80,10 L80,20 L70,20 Z" fill="currentColor" opacity="0.1"/>
  <path d="M10,40 L20,40 L20,50 L10,50 Z" fill="currentColor" opacity="0.1"/>
  <path d="M40,40 L50,40 L50,50 L40,50 Z" fill="currentColor" opacity="0.1"/>
  <path d="M70,40 L80,40 L80,50 L70,50 Z" fill="currentColor" opacity="0.1"/>
  <path d="M10,70 L20,70 L20,80 L10,80 Z" fill="currentColor" opacity="0.1"/>
  <path d="M40,70 L50,70 L50,80 L40,80 Z" fill="currentColor" opacity="0.1"/>
  <path d="M70,70 L80,70 L80,80 L70,80 Z" fill="currentColor" opacity="0.1"/>
</svg>
